# Blender v2.79 (sub 0) OBJ File: ''
# www.blender.org
mtllib Sphere9x9.mtl
o Sphere
v -0.000000 1.000000 -0.000000
v 0.219846 0.939693 -0.262003
v 0.413176 0.766044 -0.492404
v 0.556670 0.500000 -0.663414
v 0.633022 0.173648 -0.754407
v 0.633022 -0.173648 -0.754407
v 0.556670 -0.500000 -0.663414
v 0.413176 -0.766044 -0.492404
v 0.219846 -0.939693 -0.262003
v 0.336824 0.939693 -0.059391
v 0.633022 0.766044 -0.111619
v 0.852868 0.500000 -0.150384
v 0.969846 0.173648 -0.171010
v 0.969846 -0.173648 -0.171010
v 0.852868 -0.500000 -0.150384
v 0.633022 -0.766044 -0.111619
v 0.336824 -0.939693 -0.059391
v 0.296198 0.939693 0.171010
v 0.556670 0.766044 0.321394
v 0.750000 0.500000 0.433012
v 0.852868 0.173648 0.492404
v 0.852868 -0.173648 0.492404
v 0.750000 -0.500000 0.433012
v 0.556670 -0.766044 0.321394
v 0.296198 -0.939693 0.171010
v 0.116978 0.939693 0.321393
v 0.219846 0.766044 0.604022
v 0.296198 0.500000 0.813797
v 0.336824 0.173648 0.925416
v 0.336824 -0.173648 0.925416
v 0.296198 -0.500000 0.813797
v 0.219846 -0.766044 0.604022
v 0.116978 -0.939693 0.321394
v 0.000000 -1.000000 -0.000000
v -0.116978 0.939693 0.321393
v -0.219846 0.766044 0.604022
v -0.296198 0.500000 0.813797
v -0.336824 0.173648 0.925416
v -0.336824 -0.173648 0.925416
v -0.296198 -0.500000 0.813797
v -0.219846 -0.766044 0.604022
v -0.116978 -0.939693 0.321394
v -0.296198 0.939693 0.171010
v -0.556670 0.766044 0.321394
v -0.750000 0.500000 0.433013
v -0.852868 0.173648 0.492404
v -0.852868 -0.173648 0.492404
v -0.750000 -0.500000 0.433013
v -0.556670 -0.766044 0.321394
v -0.296198 -0.939693 0.171010
v -0.336824 0.939693 -0.059391
v -0.633022 0.766044 -0.111619
v -0.852868 0.500000 -0.150384
v -0.969846 0.173648 -0.171010
v -0.969846 -0.173648 -0.171010
v -0.852868 -0.500000 -0.150384
v -0.633022 -0.766044 -0.111619
v -0.336824 -0.939693 -0.059391
v -0.219846 0.939693 -0.262003
v -0.413176 0.766044 -0.492404
v -0.556670 0.500000 -0.663414
v -0.633022 0.173648 -0.754406
v -0.633022 -0.173648 -0.754406
v -0.556670 -0.500000 -0.663414
v -0.413176 -0.766044 -0.492404
v -0.219846 -0.939693 -0.262003
v -0.000000 0.939693 -0.342020
v -0.000000 0.766044 -0.642787
v -0.000000 0.500000 -0.866025
v -0.000000 0.173648 -0.984808
v -0.000000 -0.173648 -0.984808
v -0.000000 -0.500000 -0.866025
v -0.000000 -0.766044 -0.642787
v -0.000000 -0.939693 -0.342020
vt 0.666667 0.444444
vt 0.666667 0.555556
vt 0.555556 0.555556
vt 0.555556 0.444444
vt 0.666667 0.777778
vt 0.666667 0.888889
vt 0.555556 0.888889
vt 0.555556 0.777778
vt 0.611111 0.000000
vt 0.666667 0.111111
vt 0.555556 0.111111
vt 0.666667 0.333333
vt 0.555556 0.333333
vt 0.666667 0.666667
vt 0.555556 0.666667
vt 0.666667 0.222222
vt 0.555556 0.222222
vt 0.611111 1.000000
vt 0.444444 0.444444
vt 0.444444 0.333333
vt 0.444444 0.777778
vt 0.444444 0.666667
vt 0.444444 0.222222
vt 0.444444 0.555556
vt 0.500000 1.000000
vt 0.444445 0.888889
vt 0.444445 0.111111
vt 0.500000 0.000000
vt 0.333333 0.666667
vt 0.333333 0.555556
vt 0.388889 1.000000
vt 0.333333 0.888889
vt 0.333333 0.222222
vt 0.333333 0.111111
vt 0.333333 0.444444
vt 0.333333 0.777778
vt 0.388889 0.000000
vt 0.333333 0.333333
vt 0.222222 0.888889
vt 0.222222 0.777778
vt 0.277778 0.000000
vt 0.222222 0.111111
vt 0.222222 0.444444
vt 0.222222 0.333333
vt 0.222222 0.666667
vt 0.222222 0.222222
vt 0.222222 0.555556
vt 0.277778 1.000000
vt 0.111111 0.333333
vt 0.111111 0.222222
vt 0.111111 0.666667
vt 0.111111 0.555556
vt 0.166667 1.000000
vt 0.111111 0.888889
vt 0.111111 0.111111
vt 0.111111 0.444444
vt 0.111111 0.777778
vt 0.166667 0.000000
vt 0.000000 0.555556
vt 0.000000 0.444444
vt 0.000000 0.888889
vt 0.000000 0.777778
vt 0.055556 0.000000
vt 0.000000 0.111111
vt 0.000000 0.333333
vt 0.000000 0.666667
vt 0.000000 0.222222
vt 0.055556 1.000000
vt 1.000000 0.666667
vt 1.000000 0.777778
vt 0.888889 0.777778
vt 0.888889 0.666667
vt 1.000000 0.222222
vt 1.000000 0.333333
vt 0.888889 0.333333
vt 0.888889 0.222222
vt 1.000000 0.555556
vt 0.888889 0.555556
vt 1.000000 0.888889
vt 0.944444 1.000000
vt 0.888889 0.888889
vt 1.000000 0.111111
vt 0.888889 0.111111
vt 1.000000 0.444444
vt 0.888889 0.444444
vt 0.944444 0.000000
vt 0.833333 1.000000
vt 0.777778 0.888889
vt 0.777778 0.222222
vt 0.777778 0.111111
vt 0.777778 0.555556
vt 0.777778 0.444444
vt 0.777778 0.777778
vt 0.833333 0.000000
vt 0.777778 0.333333
vt 0.777778 0.666667
vt 0.722222 0.000000
vt 0.722222 1.000000
vn 0.3420 0.0000 -0.9397
vn 0.1790 0.8520 -0.4919
vn 0.0631 -0.9828 -0.1733
vn 0.3236 -0.3236 -0.8891
vn 0.2686 0.6192 -0.7379
vn 0.2686 -0.6192 -0.7379
vn 0.3236 0.3236 -0.8891
vn 0.0631 0.9828 -0.1733
vn 0.1790 -0.8520 -0.4919
vn 0.8194 -0.3236 -0.4731
vn 0.6801 0.6192 -0.3926
vn 0.6801 -0.6192 -0.3926
vn 0.8194 0.3236 -0.4731
vn 0.1597 0.9828 -0.0922
vn 0.4534 -0.8520 -0.2617
vn 0.8660 0.0000 -0.5000
vn 0.4534 0.8520 -0.2617
vn 0.1597 -0.9828 -0.0922
vn 0.9318 0.3236 0.1643
vn 0.1816 0.9828 0.0320
vn 0.5155 -0.8520 0.0909
vn 0.9848 0.0000 0.1736
vn 0.5155 0.8520 0.0909
vn 0.1816 -0.9828 0.0320
vn 0.9318 -0.3236 0.1643
vn 0.7733 0.6192 0.1364
vn 0.7733 -0.6192 0.1364
vn 0.3365 0.8520 0.4010
vn 0.1185 -0.9828 0.1413
vn 0.6082 -0.3236 0.7248
vn 0.5048 0.6192 0.6015
vn 0.5048 -0.6192 0.6015
vn 0.6082 0.3236 0.7248
vn 0.1185 0.9828 0.1413
vn 0.3365 -0.8520 0.4010
vn 0.6428 0.0000 0.7660
vn 0.0000 -0.6192 0.7853
vn 0.0000 0.3236 0.9462
vn 0.0000 0.9828 0.1844
vn 0.0000 -0.8520 0.5235
vn 0.0000 0.0000 1.0000
vn 0.0000 0.8520 0.5235
vn 0.0000 -0.9828 0.1844
vn 0.0000 -0.3236 0.9462
vn 0.0000 0.6192 0.7853
vn -0.6428 0.0000 0.7660
vn -0.3365 0.8520 0.4010
vn -0.1185 -0.9828 0.1413
vn -0.6082 -0.3236 0.7248
vn -0.5048 0.6192 0.6015
vn -0.5048 -0.6192 0.6015
vn -0.6082 0.3236 0.7248
vn -0.1185 0.9828 0.1413
vn -0.3365 -0.8520 0.4010
vn -0.7733 0.6192 0.1364
vn -0.7733 -0.6192 0.1364
vn -0.9318 0.3236 0.1643
vn -0.1816 0.9828 0.0320
vn -0.5155 -0.8520 0.0909
vn -0.9848 0.0000 0.1736
vn -0.5155 0.8520 0.0909
vn -0.1816 -0.9828 0.0320
vn -0.9318 -0.3236 0.1643
vn -0.1597 0.9828 -0.0922
vn -0.4534 -0.8520 -0.2617
vn -0.8660 0.0000 -0.5000
vn -0.4534 0.8520 -0.2617
vn -0.1597 -0.9828 -0.0922
vn -0.8194 -0.3236 -0.4731
vn -0.6801 0.6192 -0.3926
vn -0.6801 -0.6192 -0.3926
vn -0.8194 0.3236 -0.4731
vn -0.0631 -0.9828 -0.1733
vn -0.3236 -0.3236 -0.8891
vn -0.2686 0.6192 -0.7379
vn -0.2686 -0.6192 -0.7379
vn -0.3236 0.3236 -0.8891
vn -0.0631 0.9828 -0.1733
vn -0.1790 -0.8520 -0.4919
vn -0.3420 0.0000 -0.9397
vn -0.1790 0.8520 -0.4919
usemtl None
s off
f 71/1/1 70/2/1 5/3/1 6/4/1
f 68/5/2 67/6/2 2/7/2 3/8/2
f 34/9/3 74/10/3 9/11/3
f 72/12/4 71/1/4 6/4/4 7/13/4
f 69/14/5 68/5/5 3/8/5 4/15/5
f 73/16/6 72/12/6 7/13/6 8/17/6
f 70/2/7 69/14/7 4/15/7 5/3/7
f 67/6/8 1/18/8 2/7/8
f 74/10/9 73/16/9 8/17/9 9/11/9
f 7/13/10 6/4/10 14/19/10 15/20/10
f 4/15/11 3/8/11 11/21/11 12/22/11
f 8/17/12 7/13/12 15/20/12 16/23/12
f 5/3/13 4/15/13 12/22/13 13/24/13
f 2/7/14 1/25/14 10/26/14
f 9/11/15 8/17/15 16/23/15 17/27/15
f 6/4/16 5/3/16 13/24/16 14/19/16
f 3/8/17 2/7/17 10/26/17 11/21/17
f 34/28/18 9/11/18 17/27/18
f 13/24/19 12/22/19 20/29/19 21/30/19
f 10/26/20 1/31/20 18/32/20
f 17/27/21 16/23/21 24/33/21 25/34/21
f 14/19/22 13/24/22 21/30/22 22/35/22
f 11/21/23 10/26/23 18/32/23 19/36/23
f 34/37/24 17/27/24 25/34/24
f 15/20/25 14/19/25 22/35/25 23/38/25
f 12/22/26 11/21/26 19/36/26 20/29/26
f 16/23/27 15/20/27 23/38/27 24/33/27
f 19/36/28 18/32/28 26/39/28 27/40/28
f 34/41/29 25/34/29 33/42/29
f 23/38/30 22/35/30 30/43/30 31/44/30
f 20/29/31 19/36/31 27/40/31 28/45/31
f 24/33/32 23/38/32 31/44/32 32/46/32
f 21/30/33 20/29/33 28/45/33 29/47/33
f 18/32/34 1/48/34 26/39/34
f 25/34/35 24/33/35 32/46/35 33/42/35
f 22/35/36 21/30/36 29/47/36 30/43/36
f 32/46/37 31/44/37 40/49/37 41/50/37
f 29/47/38 28/45/38 37/51/38 38/52/38
f 26/39/39 1/53/39 35/54/39
f 33/42/40 32/46/40 41/50/40 42/55/40
f 30/43/41 29/47/41 38/52/41 39/56/41
f 27/40/42 26/39/42 35/54/42 36/57/42
f 34/58/43 33/42/43 42/55/43
f 31/44/44 30/43/44 39/56/44 40/49/44
f 28/45/45 27/40/45 36/57/45 37/51/45
f 39/56/46 38/52/46 46/59/46 47/60/46
f 36/57/47 35/54/47 43/61/47 44/62/47
f 34/63/48 42/55/48 50/64/48
f 40/49/49 39/56/49 47/60/49 48/65/49
f 37/51/50 36/57/50 44/62/50 45/66/50
f 41/50/51 40/49/51 48/65/51 49/67/51
f 38/52/52 37/51/52 45/66/52 46/59/52
f 35/54/53 1/68/53 43/61/53
f 42/55/54 41/50/54 49/67/54 50/64/54
f 45/69/55 44/70/55 52/71/55 53/72/55
f 49/73/56 48/74/56 56/75/56 57/76/56
f 46/77/57 45/69/57 53/72/57 54/78/57
f 43/79/58 1/80/58 51/81/58
f 50/82/59 49/73/59 57/76/59 58/83/59
f 47/84/60 46/77/60 54/78/60 55/85/60
f 44/70/61 43/79/61 51/81/61 52/71/61
f 34/86/62 50/82/62 58/83/62
f 48/74/63 47/84/63 55/85/63 56/75/63
f 51/81/64 1/87/64 59/88/64
f 58/83/65 57/76/65 65/89/65 66/90/65
f 55/85/66 54/78/66 62/91/66 63/92/66
f 52/71/67 51/81/67 59/88/67 60/93/67
f 34/94/68 58/83/68 66/90/68
f 56/75/69 55/85/69 63/92/69 64/95/69
f 53/72/70 52/71/70 60/93/70 61/96/70
f 57/76/71 56/75/71 64/95/71 65/89/71
f 54/78/72 53/72/72 61/96/72 62/91/72
f 34/97/73 66/90/73 74/10/73
f 64/95/74 63/92/74 71/1/74 72/12/74
f 61/96/75 60/93/75 68/5/75 69/14/75
f 65/89/76 64/95/76 72/12/76 73/16/76
f 62/91/77 61/96/77 69/14/77 70/2/77
f 59/88/78 1/98/78 67/6/78
f 66/90/79 65/89/79 73/16/79 74/10/79
f 63/92/80 62/91/80 70/2/80 71/1/80
f 60/93/81 59/88/81 67/6/81 68/5/81
