# Blender v2.79 (sub 0) OBJ File: ''
# www.blender.org
mtllib Sphere6x6.mtl
o Sphere
v 0.000000 0.866025 -0.500000
v 0.000000 0.500000 -0.866025
v 0.000000 -0.000000 -1.000000
v 0.000000 -0.500000 -0.866025
v 0.000000 -0.866025 -0.500000
v -0.000000 1.000000 -0.000000
v 0.433013 0.866025 -0.250000
v 0.750000 0.500000 -0.433013
v 0.866025 -0.000000 -0.500000
v 0.750000 -0.500000 -0.433013
v 0.433013 -0.866025 -0.250000
v 0.433013 0.866025 0.250000
v 0.750000 0.500000 0.433013
v 0.866025 -0.000000 0.500000
v 0.750000 -0.500000 0.433013
v 0.433013 -0.866025 0.250000
v -0.000000 0.866025 0.500000
v -0.000000 0.500000 0.866025
v -0.000000 -0.000000 1.000000
v -0.000000 -0.500000 0.866025
v -0.000000 -0.866025 0.500000
v 0.000000 -1.000000 -0.000000
v -0.433013 0.866025 0.250000
v -0.750000 0.500000 0.433012
v -0.866026 -0.000000 0.500000
v -0.750000 -0.500000 0.433012
v -0.433013 -0.866025 0.250000
v -0.433013 0.866025 -0.250000
v -0.750000 0.500000 -0.433013
v -0.866025 -0.000000 -0.500000
v -0.750000 -0.500000 -0.433013
v -0.433013 -0.866025 -0.250000
vt 0.583333 0.000000
vt 0.666667 0.166667
vt 0.500000 0.166667
vt 0.666667 0.333333
vt 0.666667 0.500000
vt 0.500000 0.500000
vt 0.500000 0.333333
vt 0.666667 0.666667
vt 0.666667 0.833333
vt 0.500000 0.833333
vt 0.500000 0.666667
vt 0.583333 1.000000
vt 0.333333 0.333333
vt 0.333333 0.166667
vt 0.333333 0.666667
vt 0.333333 0.500000
vt 0.416667 1.000000
vt 0.333333 0.833333
vt 0.416667 0.000000
vt 0.166667 0.333333
vt 0.166667 0.166667
vt 0.166667 0.666667
vt 0.166667 0.500000
vt 0.250000 1.000000
vt 0.166667 0.833333
vt 0.250000 0.000000
vt 0.000000 0.333333
vt 0.000000 0.166667
vt 0.000000 0.666667
vt 0.000000 0.500000
vt 0.083333 1.000000
vt 0.000000 0.833333
vt 0.083333 0.000000
vt 1.000000 0.166667
vt 1.000000 0.333333
vt 0.833333 0.333333
vt 0.833333 0.166667
vt 1.000000 0.500000
vt 1.000000 0.666667
vt 0.833333 0.666667
vt 0.833333 0.500000
vt 1.000000 0.833333
vt 0.916667 1.000000
vt 0.833333 0.833333
vt 0.916667 0.000000
vt 0.750000 1.000000
vt 0.750000 0.000000
vn 0.1478 -0.9553 -0.2560
vn 0.4871 -0.2260 -0.8436
vn 0.3780 0.6547 -0.6547
vn 0.3780 -0.6547 -0.6547
vn 0.4871 0.2260 -0.8436
vn 0.1478 0.9553 -0.2560
vn 0.7559 -0.6547 0.0000
vn 0.9741 0.2260 0.0000
vn 0.2956 0.9553 0.0000
vn 0.2956 -0.9553 0.0000
vn 0.9741 -0.2260 0.0000
vn 0.7559 0.6547 0.0000
vn 0.3780 -0.6547 0.6547
vn 0.4871 0.2260 0.8436
vn 0.1478 0.9553 0.2560
vn 0.1478 -0.9553 0.2560
vn 0.4871 -0.2260 0.8436
vn 0.3780 0.6547 0.6547
vn -0.3780 -0.6547 0.6547
vn -0.4871 0.2260 0.8436
vn -0.1478 0.9553 0.2560
vn -0.1478 -0.9553 0.2560
vn -0.4871 -0.2260 0.8436
vn -0.3780 0.6547 0.6547
vn -0.7559 -0.6547 -0.0000
vn -0.9741 0.2260 -0.0000
vn -0.2956 0.9553 0.0000
vn -0.2956 -0.9553 -0.0000
vn -0.9741 -0.2260 -0.0000
vn -0.7559 0.6547 -0.0000
vn -0.4871 0.2260 -0.8436
vn -0.1478 0.9553 -0.2560
vn -0.1478 -0.9553 -0.2560
vn -0.4871 -0.2260 -0.8436
vn -0.3780 0.6547 -0.6547
vn -0.3780 -0.6547 -0.6547
usemtl None
s off
f 22/1/1 5/2/1 11/3/1
f 4/4/2 3/5/2 9/6/2 10/7/2
f 2/8/3 1/9/3 7/10/3 8/11/3
f 5/2/4 4/4/4 10/7/4 11/3/4
f 3/5/5 2/8/5 8/11/5 9/6/5
f 1/9/6 6/12/6 7/10/6
f 11/3/7 10/7/7 15/13/7 16/14/7
f 9/6/8 8/11/8 13/15/8 14/16/8
f 7/10/9 6/17/9 12/18/9
f 22/19/10 11/3/10 16/14/10
f 10/7/11 9/6/11 14/16/11 15/13/11
f 8/11/12 7/10/12 12/18/12 13/15/12
f 16/14/13 15/13/13 20/20/13 21/21/13
f 14/16/14 13/15/14 18/22/14 19/23/14
f 12/18/15 6/24/15 17/25/15
f 22/26/16 16/14/16 21/21/16
f 15/13/17 14/16/17 19/23/17 20/20/17
f 13/15/18 12/18/18 17/25/18 18/22/18
f 21/21/19 20/20/19 26/27/19 27/28/19
f 19/23/20 18/22/20 24/29/20 25/30/20
f 17/25/21 6/31/21 23/32/21
f 22/33/22 21/21/22 27/28/22
f 20/20/23 19/23/23 25/30/23 26/27/23
f 18/22/24 17/25/24 23/32/24 24/29/24
f 27/34/25 26/35/25 31/36/25 32/37/25
f 25/38/26 24/39/26 29/40/26 30/41/26
f 23/42/27 6/43/27 28/44/27
f 22/45/28 27/34/28 32/37/28
f 26/35/29 25/38/29 30/41/29 31/36/29
f 24/39/30 23/42/30 28/44/30 29/40/30
f 30/41/31 29/40/31 2/8/31 3/5/31
f 28/44/32 6/46/32 1/9/32
f 22/47/33 32/37/33 5/2/33
f 31/36/34 30/41/34 3/5/34 4/4/34
f 29/40/35 28/44/35 1/9/35 2/8/35
f 32/37/36 31/36/36 4/4/36 5/2/36
